<svg width="49" height="52" viewBox="0 0 49 52" fill="none" xmlns="http://www.w3.org/2000/svg">
<path d="M3.675 24C1.64536 24 -0.0293198 22.3447 0.286499 20.3398C1.07568 15.3298 3.47136 10.6584 7.17589 7.02944C11.7705 2.52857 18.0022 4.80559e-07 24.5 0C30.9978 -4.80559e-07 37.2295 2.52856 41.8241 7.02944C45.5286 10.6584 47.9243 15.3298 48.7135 20.3398C49.0293 22.3447 47.3546 24 45.325 24C43.2954 24 41.6907 22.3347 41.2416 20.3553C40.5395 17.2607 38.9512 14.3975 36.6269 12.1206C33.4106 8.96999 29.0485 7.2 24.5 7.2C19.9515 7.2 15.5894 8.97 12.3731 12.1206C10.0488 14.3975 8.46053 17.2607 7.75839 20.3553C7.3093 22.3347 5.70465 24 3.675 24Z" fill="#3C3C43" fill-opacity="0.18"/>
<path d="M3.675 24C1.64536 24 -0.0293198 22.3447 0.286499 20.3398C1.07568 15.3298 3.47136 10.6584 7.17589 7.02944C11.7705 2.52857 18.0022 4.80559e-07 24.5 0C30.9978 -4.80559e-07 37.2295 2.52856 41.8241 7.02944C45.5286 10.6584 47.9243 15.3298 48.7135 20.3398C49.0293 22.3447 47.3546 24 45.325 24C43.2954 24 41.6907 22.3347 41.2416 20.3553C40.5395 17.2607 38.9512 14.3975 36.6269 12.1206C33.4106 8.96999 29.0485 7.2 24.5 7.2C19.9515 7.2 15.5894 8.97 12.3731 12.1206C10.0488 14.3975 8.46053 17.2607 7.75839 20.3553C7.3093 22.3347 5.70465 24 3.675 24Z" fill="#FF3B30"/>
<path d="M3.675 24C1.64536 24 -0.0292511 22.3448 0.286579 20.3399C0.747841 17.4118 1.76035 14.5818 3.28366 11.9978C5.43481 8.34885 8.52877 5.31898 12.2544 3.21288C15.9801 1.10678 20.2062 -0.00132285 24.5077 1.18481e-06C27.5716 0.000944291 30.597 0.564745 33.4301 1.65104C35.3196 2.37554 35.9155 4.65009 34.8872 6.39304C33.8846 8.0925 31.7097 8.6341 29.8306 8.03214C28.1185 7.48366 26.3216 7.20056 24.5054 7.2C21.4943 7.19907 18.5361 7.97474 15.9281 9.44901C13.3201 10.9233 11.1544 13.0442 9.64857 15.5985C8.77119 17.0868 8.13589 18.6916 7.75843 20.3554C7.30939 22.3347 5.70465 24 3.675 24Z" fill="#FFCC00"/>
<path d="M3.675 24C1.64536 24 -0.0292511 22.3448 0.286579 20.3399C0.747707 17.4126 1.75977 14.5834 3.28238 12C4.83415 9.36711 6.87674 7.05645 9.29334 5.18246C10.8526 3.9733 13.0528 4.57753 14.0547 6.27742C15.0822 8.02077 14.4454 10.2438 12.937 11.5928C11.6425 12.7505 10.5314 14.1006 9.64767 15.6C8.77076 17.0879 8.13576 18.6922 7.75843 20.3554C7.30939 22.3347 5.70465 24 3.675 24Z" fill="#34C759"/>
<circle cx="24.7642" cy="23.7642" r="12.6383" transform="rotate(-180 24.7642 23.7642)" fill="#F1E1D0"/>
<rect x="36.6365" y="24.1472" width="6.12766" height="1.53191" rx="0.765957" transform="rotate(-180 36.6365 24.1472)" fill="#84B288"/>
<path d="M8.85725 43.36C8.85725 43.728 8.82525 44.048 8.76125 44.32H9.48125C9.54525 44.576 9.57725 44.896 9.57725 45.28C9.57725 45.648 9.54525 45.968 9.48125 46.24H8.76125C8.82525 46.496 8.85725 46.816 8.85725 47.2C8.85725 47.568 8.82525 47.888 8.76125 48.16C8.82525 48.416 8.85725 48.736 8.85725 49.12C8.85725 49.488 8.82525 49.808 8.76125 50.08C8.82525 50.336 8.85725 50.656 8.85725 51.04C8.85725 51.408 8.82525 51.728 8.76125 52H6.84125C6.77725 51.728 6.74525 51.408 6.74525 51.04C6.74525 50.656 6.77725 50.336 6.84125 50.08C6.77725 49.808 6.74525 49.488 6.74525 49.12C6.74525 48.736 6.77725 48.416 6.84125 48.16C6.77725 47.888 6.74525 47.568 6.74525 47.2C6.74525 46.816 6.77725 46.496 6.84125 46.24C6.77725 45.968 6.74525 45.648 6.74525 45.28C6.74525 44.896 6.77725 44.576 6.84125 44.32C6.77725 44.048 6.74525 43.728 6.74525 43.36C6.74525 42.976 6.77725 42.656 6.84125 42.4C6.77725 42.128 6.74525 41.808 6.74525 41.44C6.74525 41.056 6.77725 40.736 6.84125 40.48C6.77725 40.208 6.74525 39.888 6.74525 39.52C6.74525 39.136 6.77725 38.816 6.84125 38.56H8.76125C8.82525 38.816 8.85725 39.136 8.85725 39.52C8.85725 39.888 8.82525 40.208 8.76125 40.48C8.82525 40.736 8.85725 41.056 8.85725 41.44C8.85725 41.808 8.82525 42.128 8.76125 42.4C8.82525 42.656 8.85725 42.976 8.85725 43.36ZM14.5213 46.24C14.5853 46.496 14.6173 46.816 14.6173 47.2C14.6173 47.568 14.5853 47.888 14.5213 48.16C14.5853 48.416 14.6173 48.736 14.6173 49.12C14.6173 49.488 14.5853 49.808 14.5213 50.08C14.5853 50.336 14.6173 50.656 14.6173 51.04C14.6173 51.408 14.5853 51.728 14.5213 52H12.6013C12.5373 51.728 12.5053 51.408 12.5053 51.04C12.5053 50.656 12.5373 50.336 12.6013 50.08C12.5373 49.808 12.5053 49.488 12.5053 49.12C12.5053 48.736 12.5373 48.416 12.6013 48.16C12.5373 47.888 12.5053 47.568 12.5053 47.2C12.5053 46.816 12.5373 46.496 12.6013 46.24C12.5373 45.968 12.5053 45.648 12.5053 45.28C12.5053 44.896 12.5373 44.576 12.6013 44.32H9.48125C9.41725 44.048 9.38525 43.728 9.38525 43.36C9.38525 42.976 9.41725 42.656 9.48125 42.4H13.3213C13.3853 42.656 13.4173 42.976 13.4173 43.36C13.4173 43.728 13.3853 44.048 13.3213 44.32H14.5213C14.5853 44.576 14.6173 44.896 14.6173 45.28C14.6173 45.648 14.5853 45.968 14.5213 46.24ZM23.7306 50.08C23.7946 50.336 23.8266 50.656 23.8266 51.04C23.8266 51.408 23.7946 51.728 23.7306 52H21.8106C21.7466 51.728 21.7146 51.408 21.7146 51.04C21.7146 50.656 21.7466 50.336 21.8106 50.08H20.8506C20.7866 49.808 20.7546 49.488 20.7546 49.12C20.7546 48.736 20.7866 48.416 20.8506 48.16H17.9706C18.0346 48.416 18.0666 48.736 18.0666 49.12C18.0666 49.488 18.0346 49.808 17.9706 50.08H20.8506C20.9146 50.336 20.9466 50.656 20.9466 51.04C20.9466 51.408 20.9146 51.728 20.8506 52H17.0106C16.9466 51.728 16.9146 51.408 16.9146 51.04C16.9146 50.656 16.9466 50.336 17.0106 50.08H16.0506C15.9866 49.808 15.9546 49.488 15.9546 49.12C15.9546 48.736 15.9866 48.416 16.0506 48.16H17.0106C16.9466 47.888 16.9146 47.568 16.9146 47.2C16.9146 46.816 16.9466 46.496 17.0106 46.24H20.8506C20.7866 45.968 20.7546 45.648 20.7546 45.28C20.7546 44.896 20.7866 44.576 20.8506 44.32H17.4906C17.4266 44.048 17.3946 43.728 17.3946 43.36C17.3946 42.976 17.4266 42.656 17.4906 42.4H21.8106C21.8746 42.656 21.9066 42.976 21.9066 43.36C21.9066 43.728 21.8746 44.048 21.8106 44.32H22.7706C22.8346 44.576 22.8666 44.896 22.8666 45.28C22.8666 45.648 22.8346 45.968 22.7706 46.24C22.8346 46.496 22.8666 46.816 22.8666 47.2C22.8666 47.568 22.8346 47.888 22.7706 48.16C22.8346 48.416 22.8666 48.736 22.8666 49.12C22.8666 49.488 22.8346 49.808 22.7706 50.08H23.7306ZM32.94 44.32C33.004 44.576 33.036 44.896 33.036 45.28C33.036 45.648 33.004 45.968 32.94 46.24H31.02C30.956 45.968 30.924 45.648 30.924 45.28C30.924 44.896 30.956 44.576 31.02 44.32H29.34C29.404 44.576 29.436 44.896 29.436 45.28C29.436 45.648 29.404 45.968 29.34 46.24H28.62C28.684 46.496 28.716 46.816 28.716 47.2C28.716 47.568 28.684 47.888 28.62 48.16C28.684 48.416 28.716 48.736 28.716 49.12C28.716 49.488 28.684 49.808 28.62 50.08H30.06C30.124 50.336 30.156 50.656 30.156 51.04C30.156 51.408 30.124 51.728 30.06 52H25.26C25.196 51.728 25.164 51.408 25.164 51.04C25.164 50.656 25.196 50.336 25.26 50.08H26.7C26.636 49.808 26.604 49.488 26.604 49.12C26.604 48.736 26.636 48.416 26.7 48.16C26.636 47.888 26.604 47.568 26.604 47.2C26.604 46.816 26.636 46.496 26.7 46.24C26.636 45.968 26.604 45.648 26.604 45.28C26.604 44.896 26.636 44.576 26.7 44.32H25.26C25.196 44.048 25.164 43.728 25.164 43.36C25.164 42.976 25.196 42.656 25.26 42.4H27.66C27.724 42.656 27.756 42.976 27.756 43.36C27.756 43.728 27.724 44.048 27.66 44.32H28.62C28.556 44.048 28.524 43.728 28.524 43.36C28.524 42.976 28.556 42.656 28.62 42.4H32.22C32.284 42.656 32.316 42.976 32.316 43.36C32.316 43.728 32.284 44.048 32.22 44.32H32.94ZM42.1494 40.48C42.2134 40.736 42.2454 41.056 42.2454 41.44C42.2454 41.808 42.2134 42.128 42.1494 42.4C42.2134 42.656 42.2454 42.976 42.2454 43.36C42.2454 43.728 42.2134 44.048 42.1494 44.32C42.2134 44.576 42.2454 44.896 42.2454 45.28C42.2454 45.648 42.2134 45.968 42.1494 46.24C42.2134 46.496 42.2454 46.816 42.2454 47.2C42.2454 47.568 42.2134 47.888 42.1494 48.16C42.2134 48.416 42.2454 48.736 42.2454 49.12C42.2454 49.488 42.2134 49.808 42.1494 50.08C42.2134 50.336 42.2454 50.656 42.2454 51.04C42.2454 51.408 42.2134 51.728 42.1494 52H40.2294C40.1654 51.728 40.1334 51.408 40.1334 51.04C40.1334 50.656 40.1654 50.336 40.2294 50.08H39.5094C39.4454 49.808 39.4134 49.488 39.4134 49.12C39.4134 48.736 39.4454 48.416 39.5094 48.16H40.2294C40.1654 47.888 40.1334 47.568 40.1334 47.2C40.1334 46.816 40.1654 46.496 40.2294 46.24H39.5094C39.4454 45.968 39.4134 45.648 39.4134 45.28C39.4134 44.896 39.4454 44.576 39.5094 44.32H40.2294C40.1654 44.048 40.1334 43.728 40.1334 43.36C40.1334 42.976 40.1654 42.656 40.2294 42.4C40.1654 42.128 40.1334 41.808 40.1334 41.44C40.1334 41.056 40.1654 40.736 40.2294 40.48C40.1654 40.208 40.1334 39.888 40.1334 39.52C40.1334 39.136 40.1654 38.816 40.2294 38.56H42.1494C42.2134 38.816 42.2454 39.136 42.2454 39.52C42.2454 39.888 42.2134 40.208 42.1494 40.48ZM39.1254 43.36C39.1254 43.728 39.0934 44.048 39.0294 44.32H36.6294C36.6934 44.576 36.7254 44.896 36.7254 45.28C36.7254 45.648 36.6934 45.968 36.6294 46.24H35.9094C35.9734 46.496 36.0054 46.816 36.0054 47.2C36.0054 47.568 35.9734 47.888 35.9094 48.16H36.6294C36.6934 48.416 36.7254 48.736 36.7254 49.12C36.7254 49.488 36.6934 49.808 36.6294 50.08H39.0294C39.0934 50.336 39.1254 50.656 39.1254 51.04C39.1254 51.408 39.0934 51.728 39.0294 52H36.3894C36.3254 51.728 36.2934 51.408 36.2934 51.04C36.2934 50.656 36.3254 50.336 36.3894 50.08H35.1894C35.1254 49.808 35.0934 49.488 35.0934 49.12C35.0934 48.736 35.1254 48.416 35.1894 48.16H34.4694C34.4054 47.888 34.3734 47.568 34.3734 47.2C34.3734 46.816 34.4054 46.496 34.4694 46.24H35.1894C35.1254 45.968 35.0934 45.648 35.0934 45.28C35.0934 44.896 35.1254 44.576 35.1894 44.32H36.3894C36.3254 44.048 36.2934 43.728 36.2934 43.36C36.2934 42.976 36.3254 42.656 36.3894 42.4H39.0294C39.0934 42.656 39.1254 42.976 39.1254 43.36Z" fill="white"/>
</svg>
