<svg width="792" height="144" viewBox="0 0 792 144" fill="none" xmlns="http://www.w3.org/2000/svg">
<path d="M84.684 10.88C84.684 14.8053 84.3427 18.2187 83.66 21.12C84.3427 23.8507 84.684 27.264 84.684 31.36C84.684 35.2853 84.3427 38.6987 83.66 41.6H73.42C74.1027 44.3307 74.444 47.744 74.444 51.84C74.444 55.7653 74.1027 59.1787 73.42 62.08H63.18C63.8627 64.8107 64.204 68.224 64.204 72.32C64.204 76.2453 63.8627 79.6587 63.18 82.56H52.94C53.6227 85.2907 53.964 88.704 53.964 92.8C53.964 96.7253 53.6227 100.139 52.94 103.04C53.6227 105.771 53.964 109.184 53.964 113.28C53.964 117.205 53.6227 120.619 52.94 123.52C53.6227 126.251 53.964 129.664 53.964 133.76C53.964 137.685 53.6227 141.099 52.94 144H32.46C31.7773 141.099 31.436 137.685 31.436 133.76C31.436 129.664 31.7773 126.251 32.46 123.52C31.7773 120.619 31.436 117.205 31.436 113.28C31.436 109.184 31.7773 105.771 32.46 103.04C31.7773 100.139 31.436 96.7253 31.436 92.8C31.436 88.704 31.7773 85.2907 32.46 82.56H22.22C21.5373 79.6587 21.196 76.2453 21.196 72.32C21.196 68.224 21.5373 64.8107 22.22 62.08H11.98C11.2973 59.1787 10.956 55.7653 10.956 51.84C10.956 47.744 11.2973 44.3307 11.98 41.6H1.74C1.05733 38.6987 0.716001 35.2853 0.716001 31.36C0.716001 27.264 1.05733 23.8507 1.74 21.12C1.05733 18.2187 0.716001 14.8053 0.716001 10.88C0.716001 6.78399 1.05733 3.37066 1.74 0.639999H22.22C22.9027 3.37066 23.244 6.78399 23.244 10.88C23.244 14.8053 22.9027 18.2187 22.22 21.12C22.9027 23.8507 23.244 27.264 23.244 31.36C23.244 35.2853 22.9027 38.6987 22.22 41.6H32.46C33.1427 44.3307 33.484 47.744 33.484 51.84C33.484 55.7653 33.1427 59.1787 32.46 62.08H52.94C52.2573 59.1787 51.916 55.7653 51.916 51.84C51.916 47.744 52.2573 44.3307 52.94 41.6H63.18C62.4973 38.6987 62.156 35.2853 62.156 31.36C62.156 27.264 62.4973 23.8507 63.18 21.12C62.4973 18.2187 62.156 14.8053 62.156 10.88C62.156 6.78399 62.4973 3.37066 63.18 0.639999H83.66C84.3427 3.37066 84.684 6.78399 84.684 10.88ZM186.16 62.08C186.843 64.8107 187.184 68.224 187.184 72.32C187.184 76.2453 186.843 79.6587 186.16 82.56C186.843 85.2907 187.184 88.704 187.184 92.8C187.184 96.7253 186.843 100.139 186.16 103.04H178.48C179.163 105.771 179.504 109.184 179.504 113.28C179.504 117.205 179.163 120.619 178.48 123.52H165.68C166.363 126.251 166.704 129.664 166.704 133.76C166.704 137.685 166.363 141.099 165.68 144H124.72C124.037 141.099 123.696 137.685 123.696 133.76C123.696 129.664 124.037 126.251 124.72 123.52H111.92C111.237 120.619 110.896 117.205 110.896 113.28C110.896 109.184 111.237 105.771 111.92 103.04H104.24C103.557 100.139 103.216 96.7253 103.216 92.8C103.216 88.704 103.557 85.2907 104.24 82.56C103.557 79.6587 103.216 76.2453 103.216 72.32C103.216 68.224 103.557 64.8107 104.24 62.08C103.557 59.1787 103.216 55.7653 103.216 51.84C103.216 47.744 103.557 44.3307 104.24 41.6H111.92C111.237 38.6987 110.896 35.2853 110.896 31.36C110.896 27.264 111.237 23.8507 111.92 21.12H124.72C124.037 18.2187 123.696 14.8053 123.696 10.88C123.696 6.78399 124.037 3.37066 124.72 0.639999H165.68C166.363 3.37066 166.704 6.78399 166.704 10.88C166.704 14.8053 166.363 18.2187 165.68 21.12H178.48C179.163 23.8507 179.504 27.264 179.504 31.36C179.504 35.2853 179.163 38.6987 178.48 41.6H186.16C186.843 44.3307 187.184 47.744 187.184 51.84C187.184 55.7653 186.843 59.1787 186.16 62.08ZM165.68 103.04C164.997 100.139 164.656 96.7253 164.656 92.8C164.656 88.704 164.997 85.2907 165.68 82.56C164.997 79.6587 164.656 76.2453 164.656 72.32C164.656 68.224 164.997 64.8107 165.68 62.08C164.997 59.1787 164.656 55.7653 164.656 51.84C164.656 47.744 164.997 44.3307 165.68 41.6H158C157.317 38.6987 156.976 35.2853 156.976 31.36C156.976 27.264 157.317 23.8507 158 21.12H132.4C133.083 23.8507 133.424 27.264 133.424 31.36C133.424 35.2853 133.083 38.6987 132.4 41.6H124.72C125.403 44.3307 125.744 47.744 125.744 51.84C125.744 55.7653 125.403 59.1787 124.72 62.08C125.403 64.8107 125.744 68.224 125.744 72.32C125.744 76.2453 125.403 79.6587 124.72 82.56C125.403 85.2907 125.744 88.704 125.744 92.8C125.744 96.7253 125.403 100.139 124.72 103.04H132.4C133.083 105.771 133.424 109.184 133.424 113.28C133.424 117.205 133.083 120.619 132.4 123.52H158C157.317 120.619 156.976 117.205 156.976 113.28C156.976 109.184 157.317 105.771 158 103.04H165.68ZM288.66 21.12C289.343 23.8507 289.684 27.264 289.684 31.36C289.684 35.2853 289.343 38.6987 288.66 41.6C289.343 44.3307 289.684 47.744 289.684 51.84C289.684 55.7653 289.343 59.1787 288.66 62.08C289.343 64.8107 289.684 68.224 289.684 72.32C289.684 76.2453 289.343 79.6587 288.66 82.56C289.343 85.2907 289.684 88.704 289.684 92.8C289.684 96.7253 289.343 100.139 288.66 103.04C289.343 105.771 289.684 109.184 289.684 113.28C289.684 117.205 289.343 120.619 288.66 123.52H278.42C279.103 126.251 279.444 129.664 279.444 133.76C279.444 137.685 279.103 141.099 278.42 144H216.98C216.297 141.099 215.956 137.685 215.956 133.76C215.956 129.664 216.297 126.251 216.98 123.52H206.74C206.057 120.619 205.716 117.205 205.716 113.28C205.716 109.184 206.057 105.771 206.74 103.04C206.057 100.139 205.716 96.7253 205.716 92.8C205.716 88.704 206.057 85.2907 206.74 82.56C206.057 79.6587 205.716 76.2453 205.716 72.32C205.716 68.224 206.057 64.8107 206.74 62.08C206.057 59.1787 205.716 55.7653 205.716 51.84C205.716 47.744 206.057 44.3307 206.74 41.6C206.057 38.6987 205.716 35.2853 205.716 31.36C205.716 27.264 206.057 23.8507 206.74 21.12C206.057 18.2187 205.716 14.8053 205.716 10.88C205.716 6.78399 206.057 3.37066 206.74 0.639999H227.22C227.903 3.37066 228.244 6.78399 228.244 10.88C228.244 14.8053 227.903 18.2187 227.22 21.12C227.903 23.8507 228.244 27.264 228.244 31.36C228.244 35.2853 227.903 38.6987 227.22 41.6C227.903 44.3307 228.244 47.744 228.244 51.84C228.244 55.7653 227.903 59.1787 227.22 62.08C227.903 64.8107 228.244 68.224 228.244 72.32C228.244 76.2453 227.903 79.6587 227.22 82.56C227.903 85.2907 228.244 88.704 228.244 92.8C228.244 96.7253 227.903 100.139 227.22 103.04C227.903 105.771 228.244 109.184 228.244 113.28C228.244 117.205 227.903 120.619 227.22 123.52H268.18C267.497 120.619 267.156 117.205 267.156 113.28C267.156 109.184 267.497 105.771 268.18 103.04C267.497 100.139 267.156 96.7253 267.156 92.8C267.156 88.704 267.497 85.2907 268.18 82.56C267.497 79.6587 267.156 76.2453 267.156 72.32C267.156 68.224 267.497 64.8107 268.18 62.08C267.497 59.1787 267.156 55.7653 267.156 51.84C267.156 47.744 267.497 44.3307 268.18 41.6C267.497 38.6987 267.156 35.2853 267.156 31.36C267.156 27.264 267.497 23.8507 268.18 21.12C267.497 18.2187 267.156 14.8053 267.156 10.88C267.156 6.78399 267.497 3.37066 268.18 0.639999H288.66C289.343 3.37066 289.684 6.78399 289.684 10.88C289.684 14.8053 289.343 18.2187 288.66 21.12ZM493.66 123.52C494.343 126.251 494.684 129.664 494.684 133.76C494.684 137.685 494.343 141.099 493.66 144H421.98C421.297 141.099 420.956 137.685 420.956 133.76C420.956 129.664 421.297 126.251 421.98 123.52C421.297 120.619 420.956 117.205 420.956 113.28C420.956 109.184 421.297 105.771 421.98 103.04C421.297 100.139 420.956 96.7253 420.956 92.8C420.956 88.704 421.297 85.2907 421.98 82.56C421.297 79.6587 420.956 76.2453 420.956 72.32C420.956 68.224 421.297 64.8107 421.98 62.08C421.297 59.1787 420.956 55.7653 420.956 51.84C420.956 47.744 421.297 44.3307 421.98 41.6C421.297 38.6987 420.956 35.2853 420.956 31.36C420.956 27.264 421.297 23.8507 421.98 21.12C421.297 18.2187 420.956 14.8053 420.956 10.88C420.956 6.78399 421.297 3.37066 421.98 0.639999H442.46C443.143 3.37066 443.484 6.78399 443.484 10.88C443.484 14.8053 443.143 18.2187 442.46 21.12C443.143 23.8507 443.484 27.264 443.484 31.36C443.484 35.2853 443.143 38.6987 442.46 41.6C443.143 44.3307 443.484 47.744 443.484 51.84C443.484 55.7653 443.143 59.1787 442.46 62.08C443.143 64.8107 443.484 68.224 443.484 72.32C443.484 76.2453 443.143 79.6587 442.46 82.56C443.143 85.2907 443.484 88.704 443.484 92.8C443.484 96.7253 443.143 100.139 442.46 103.04C443.143 105.771 443.484 109.184 443.484 113.28C443.484 117.205 443.143 120.619 442.46 123.52H493.66ZM596.16 62.08C596.843 64.8107 597.184 68.224 597.184 72.32C597.184 76.2453 596.843 79.6587 596.16 82.56C596.843 85.2907 597.184 88.704 597.184 92.8C597.184 96.7253 596.843 100.139 596.16 103.04H588.48C589.163 105.771 589.504 109.184 589.504 113.28C589.504 117.205 589.163 120.619 588.48 123.52H575.68C576.363 126.251 576.704 129.664 576.704 133.76C576.704 137.685 576.363 141.099 575.68 144H534.72C534.037 141.099 533.696 137.685 533.696 133.76C533.696 129.664 534.037 126.251 534.72 123.52H521.92C521.237 120.619 520.896 117.205 520.896 113.28C520.896 109.184 521.237 105.771 521.92 103.04H514.24C513.557 100.139 513.216 96.7253 513.216 92.8C513.216 88.704 513.557 85.2907 514.24 82.56C513.557 79.6587 513.216 76.2453 513.216 72.32C513.216 68.224 513.557 64.8107 514.24 62.08C513.557 59.1787 513.216 55.7653 513.216 51.84C513.216 47.744 513.557 44.3307 514.24 41.6H521.92C521.237 38.6987 520.896 35.2853 520.896 31.36C520.896 27.264 521.237 23.8507 521.92 21.12H534.72C534.037 18.2187 533.696 14.8053 533.696 10.88C533.696 6.78399 534.037 3.37066 534.72 0.639999H575.68C576.363 3.37066 576.704 6.78399 576.704 10.88C576.704 14.8053 576.363 18.2187 575.68 21.12H588.48C589.163 23.8507 589.504 27.264 589.504 31.36C589.504 35.2853 589.163 38.6987 588.48 41.6H596.16C596.843 44.3307 597.184 47.744 597.184 51.84C597.184 55.7653 596.843 59.1787 596.16 62.08ZM575.68 103.04C574.997 100.139 574.656 96.7253 574.656 92.8C574.656 88.704 574.997 85.2907 575.68 82.56C574.997 79.6587 574.656 76.2453 574.656 72.32C574.656 68.224 574.997 64.8107 575.68 62.08C574.997 59.1787 574.656 55.7653 574.656 51.84C574.656 47.744 574.997 44.3307 575.68 41.6H568C567.317 38.6987 566.976 35.2853 566.976 31.36C566.976 27.264 567.317 23.8507 568 21.12H542.4C543.083 23.8507 543.424 27.264 543.424 31.36C543.424 35.2853 543.083 38.6987 542.4 41.6H534.72C535.403 44.3307 535.744 47.744 535.744 51.84C535.744 55.7653 535.403 59.1787 534.72 62.08C535.403 64.8107 535.744 68.224 535.744 72.32C535.744 76.2453 535.403 79.6587 534.72 82.56C535.403 85.2907 535.744 88.704 535.744 92.8C535.744 96.7253 535.403 100.139 534.72 103.04H542.4C543.083 105.771 543.424 109.184 543.424 113.28C543.424 117.205 543.083 120.619 542.4 123.52H568C567.317 120.619 566.976 117.205 566.976 113.28C566.976 109.184 567.317 105.771 568 103.04H575.68ZM698.66 82.56C699.343 85.2907 699.684 88.704 699.684 92.8C699.684 96.7253 699.343 100.139 698.66 103.04C699.343 105.771 699.684 109.184 699.684 113.28C699.684 117.205 699.343 120.619 698.66 123.52H688.42C689.103 126.251 689.444 129.664 689.444 133.76C689.444 137.685 689.103 141.099 688.42 144H626.98C626.297 141.099 625.956 137.685 625.956 133.76C625.956 129.664 626.297 126.251 626.98 123.52H616.74C616.057 120.619 615.716 117.205 615.716 113.28C615.716 109.184 616.057 105.771 616.74 103.04H637.22C637.903 105.771 638.244 109.184 638.244 113.28C638.244 117.205 637.903 120.619 637.22 123.52H678.18C677.497 120.619 677.156 117.205 677.156 113.28C677.156 109.184 677.497 105.771 678.18 103.04C677.497 100.139 677.156 96.7253 677.156 92.8C677.156 88.704 677.497 85.2907 678.18 82.56H626.98C626.297 79.6587 625.956 76.2453 625.956 72.32C625.956 68.224 626.297 64.8107 626.98 62.08H616.74C616.057 59.1787 615.716 55.7653 615.716 51.84C615.716 47.744 616.057 44.3307 616.74 41.6C616.057 38.6987 615.716 35.2853 615.716 31.36C615.716 27.264 616.057 23.8507 616.74 21.12H626.98C626.297 18.2187 625.956 14.8053 625.956 10.88C625.956 6.78399 626.297 3.37066 626.98 0.639999H688.42C689.103 3.37066 689.444 6.78399 689.444 10.88C689.444 14.8053 689.103 18.2187 688.42 21.12H698.66C699.343 23.8507 699.684 27.264 699.684 31.36C699.684 35.2853 699.343 38.6987 698.66 41.6H678.18C677.497 38.6987 677.156 35.2853 677.156 31.36C677.156 27.264 677.497 23.8507 678.18 21.12H637.22C637.903 23.8507 638.244 27.264 638.244 31.36C638.244 35.2853 637.903 38.6987 637.22 41.6C637.903 44.3307 638.244 47.744 638.244 51.84C638.244 55.7653 637.903 59.1787 637.22 62.08H688.42C689.103 64.8107 689.444 68.224 689.444 72.32C689.444 76.2453 689.103 79.6587 688.42 82.56H698.66ZM749.96 82.56C750.643 85.2907 750.984 88.704 750.984 92.8C750.984 96.7253 750.643 100.139 749.96 103.04C750.643 105.771 750.984 109.184 750.984 113.28C750.984 117.205 750.643 120.619 749.96 123.52H790.92C791.603 126.251 791.944 129.664 791.944 133.76C791.944 137.685 791.603 141.099 790.92 144H729.48C728.797 141.099 728.456 137.685 728.456 133.76C728.456 129.664 728.797 126.251 729.48 123.52C728.797 120.619 728.456 117.205 728.456 113.28C728.456 109.184 728.797 105.771 729.48 103.04C728.797 100.139 728.456 96.7253 728.456 92.8C728.456 88.704 728.797 85.2907 729.48 82.56C728.797 79.6587 728.456 76.2453 728.456 72.32C728.456 68.224 728.797 64.8107 729.48 62.08C728.797 59.1787 728.456 55.7653 728.456 51.84C728.456 47.744 728.797 44.3307 729.48 41.6C728.797 38.6987 728.456 35.2853 728.456 31.36C728.456 27.264 728.797 23.8507 729.48 21.12C728.797 18.2187 728.456 14.8053 728.456 10.88C728.456 6.78399 728.797 3.37066 729.48 0.639999H790.92C791.603 3.37066 791.944 6.78399 791.944 10.88C791.944 14.8053 791.603 18.2187 790.92 21.12H749.96C750.643 23.8507 750.984 27.264 750.984 31.36C750.984 35.2853 750.643 38.6987 749.96 41.6C750.643 44.3307 750.984 47.744 750.984 51.84C750.984 55.7653 750.643 59.1787 749.96 62.08H790.92C791.603 64.8107 791.944 68.224 791.944 72.32C791.944 76.2453 791.603 79.6587 790.92 82.56H749.96Z" fill="black"/>
</svg>
