<svg width="49" height="59" viewBox="0 0 49 59" fill="none" xmlns="http://www.w3.org/2000/svg">
<path d="M3.675 24C1.64536 24 -0.0293198 22.3447 0.286499 20.3398C1.07568 15.3298 3.47136 10.6584 7.17589 7.02944C11.7705 2.52857 18.0022 4.80559e-07 24.5 0C30.9978 -4.80559e-07 37.2295 2.52856 41.8241 7.02944C45.5286 10.6584 47.9243 15.3298 48.7135 20.3398C49.0293 22.3447 47.3546 24 45.325 24C43.2954 24 41.6907 22.3347 41.2416 20.3553C40.5395 17.2607 38.9512 14.3975 36.6269 12.1206C33.4106 8.96999 29.0485 7.2 24.5 7.2C19.9515 7.2 15.5894 8.97 12.3731 12.1206C10.0488 14.3975 8.46053 17.2607 7.75839 20.3553C7.3093 22.3347 5.70465 24 3.675 24Z" fill="#3C3C43" fill-opacity="0.18"/>
<path d="M3.675 24C1.64536 24 -0.0292511 22.3448 0.286579 20.3399C0.747707 17.4126 1.75977 14.5834 3.28238 12C4.83415 9.36711 6.87674 7.05645 9.29334 5.18246C10.8526 3.9733 13.0528 4.57753 14.0547 6.27742C15.0822 8.02077 14.4454 10.2438 12.937 11.5928C11.6425 12.7505 10.5314 14.1006 9.64767 15.6C8.77076 17.0879 8.13576 18.6922 7.75843 20.3554C7.30939 22.3347 5.70465 24 3.675 24Z" fill="#34C759"/>
<circle cx="24.7642" cy="23.7642" r="12.6383" transform="rotate(60 24.7642 23.7642)" fill="#F1E1D0"/>
<rect x="19.1597" y="13.291" width="6.12766" height="1.53191" rx="0.765957" transform="rotate(60 19.1597 13.291)" fill="#84B288"/>
<path d="M14.6173 48.28C14.6173 48.648 14.5853 48.968 14.5213 49.24C14.5853 49.496 14.6173 49.816 14.6173 50.2C14.6173 50.568 14.5853 50.888 14.5213 51.16H9.48125C9.54525 51.416 9.57725 51.736 9.57725 52.12C9.57725 52.488 9.54525 52.808 9.48125 53.08H13.5613C13.6253 53.336 13.6573 53.656 13.6573 54.04C13.6573 54.408 13.6253 54.728 13.5613 55H8.76125C8.69725 54.728 8.66525 54.408 8.66525 54.04C8.66525 53.656 8.69725 53.336 8.76125 53.08H7.56125C7.49725 52.808 7.46525 52.488 7.46525 52.12C7.46525 51.736 7.49725 51.416 7.56125 51.16H6.84125C6.77725 50.888 6.74525 50.568 6.74525 50.2C6.74525 49.816 6.77725 49.496 6.84125 49.24H7.56125C7.49725 48.968 7.46525 48.648 7.46525 48.28C7.46525 47.896 7.49725 47.576 7.56125 47.32H8.76125C8.69725 47.048 8.66525 46.728 8.66525 46.36C8.66525 45.976 8.69725 45.656 8.76125 45.4H13.5613C13.6253 45.656 13.6573 45.976 13.6573 46.36C13.6573 46.728 13.6253 47.048 13.5613 47.32H14.5213C14.5853 47.576 14.6173 47.896 14.6173 48.28ZM12.6013 49.24C12.5373 48.968 12.5053 48.648 12.5053 48.28C12.5053 47.896 12.5373 47.576 12.6013 47.32H9.48125C9.54525 47.576 9.57725 47.896 9.57725 48.28C9.57725 48.648 9.54525 48.968 9.48125 49.24H12.6013ZM23.7306 53.08C23.7946 53.336 23.8266 53.656 23.8266 54.04C23.8266 54.408 23.7946 54.728 23.7306 55H21.8106C21.7466 54.728 21.7146 54.408 21.7146 54.04C21.7146 53.656 21.7466 53.336 21.8106 53.08H20.8506C20.7866 52.808 20.7546 52.488 20.7546 52.12C20.7546 51.736 20.7866 51.416 20.8506 51.16H17.9706C18.0346 51.416 18.0666 51.736 18.0666 52.12C18.0666 52.488 18.0346 52.808 17.9706 53.08H20.8506C20.9146 53.336 20.9466 53.656 20.9466 54.04C20.9466 54.408 20.9146 54.728 20.8506 55H17.0106C16.9466 54.728 16.9146 54.408 16.9146 54.04C16.9146 53.656 16.9466 53.336 17.0106 53.08H16.0506C15.9866 52.808 15.9546 52.488 15.9546 52.12C15.9546 51.736 15.9866 51.416 16.0506 51.16H17.0106C16.9466 50.888 16.9146 50.568 16.9146 50.2C16.9146 49.816 16.9466 49.496 17.0106 49.24H20.8506C20.7866 48.968 20.7546 48.648 20.7546 48.28C20.7546 47.896 20.7866 47.576 20.8506 47.32H17.4906C17.4266 47.048 17.3946 46.728 17.3946 46.36C17.3946 45.976 17.4266 45.656 17.4906 45.4H21.8106C21.8746 45.656 21.9066 45.976 21.9066 46.36C21.9066 46.728 21.8746 47.048 21.8106 47.32H22.7706C22.8346 47.576 22.8666 47.896 22.8666 48.28C22.8666 48.648 22.8346 48.968 22.7706 49.24C22.8346 49.496 22.8666 49.816 22.8666 50.2C22.8666 50.568 22.8346 50.888 22.7706 51.16C22.8346 51.416 22.8666 51.736 22.8666 52.12C22.8666 52.488 22.8346 52.808 22.7706 53.08H23.7306ZM32.556 52.12C32.556 52.488 32.524 52.808 32.46 53.08H31.5C31.564 53.336 31.596 53.656 31.596 54.04C31.596 54.408 31.564 54.728 31.5 55H26.22C26.156 54.728 26.124 54.408 26.124 54.04C26.124 53.656 26.156 53.336 26.22 53.08H30.54C30.476 52.808 30.444 52.488 30.444 52.12C30.444 51.736 30.476 51.416 30.54 51.16H26.7C26.636 50.888 26.604 50.568 26.604 50.2C26.604 49.816 26.636 49.496 26.7 49.24H25.74C25.676 48.968 25.644 48.648 25.644 48.28C25.644 47.896 25.676 47.576 25.74 47.32H26.7C26.636 47.048 26.604 46.728 26.604 46.36C26.604 45.976 26.636 45.656 26.7 45.4H31.98C32.044 45.656 32.076 45.976 32.076 46.36C32.076 46.728 32.044 47.048 31.98 47.32H27.66C27.724 47.576 27.756 47.896 27.756 48.28C27.756 48.648 27.724 48.968 27.66 49.24H31.5C31.564 49.496 31.596 49.816 31.596 50.2C31.596 50.568 31.564 50.888 31.5 51.16H32.46C32.524 51.416 32.556 51.736 32.556 52.12ZM42.2454 46.36C42.2454 46.728 42.2134 47.048 42.1494 47.32H41.4294C41.4934 47.576 41.5254 47.896 41.5254 48.28C41.5254 48.648 41.4934 48.968 41.4294 49.24H40.7094C40.7734 49.496 40.8054 49.816 40.8054 50.2C40.8054 50.568 40.7734 50.888 40.7094 51.16H40.2294C40.2934 51.416 40.3254 51.736 40.3254 52.12C40.3254 52.488 40.2934 52.808 40.2294 53.08H39.5094C39.5734 53.336 39.6054 53.656 39.6054 54.04C39.6054 54.408 39.5734 54.728 39.5094 55H39.0294C39.0934 55.256 39.1254 55.576 39.1254 55.96C39.1254 56.328 39.0934 56.648 39.0294 56.92H38.0694C38.1334 57.176 38.1654 57.496 38.1654 57.88C38.1654 58.248 38.1334 58.568 38.0694 58.84H35.1894C35.1254 58.568 35.0934 58.248 35.0934 57.88C35.0934 57.496 35.1254 57.176 35.1894 56.92H37.1094C37.0454 56.648 37.0134 56.328 37.0134 55.96C37.0134 55.576 37.0454 55.256 37.1094 55C37.0454 54.728 37.0134 54.408 37.0134 54.04C37.0134 53.656 37.0454 53.336 37.1094 53.08H36.1494C36.0854 52.808 36.0534 52.488 36.0534 52.12C36.0534 51.736 36.0854 51.416 36.1494 51.16H35.6694C35.6054 50.888 35.5734 50.568 35.5734 50.2C35.5734 49.816 35.6054 49.496 35.6694 49.24H34.9494C34.8854 48.968 34.8534 48.648 34.8534 48.28C34.8534 47.896 34.8854 47.576 34.9494 47.32H34.2294C34.1654 47.048 34.1334 46.728 34.1334 46.36C34.1334 45.976 34.1654 45.656 34.2294 45.4H36.1494C36.2134 45.656 36.2454 45.976 36.2454 46.36C36.2454 46.728 36.2134 47.048 36.1494 47.32H36.8694C36.9334 47.576 36.9654 47.896 36.9654 48.28C36.9654 48.648 36.9334 48.968 36.8694 49.24H37.5894C37.6534 49.496 37.6854 49.816 37.6854 50.2C37.6854 50.568 37.6534 50.888 37.5894 51.16C37.6534 51.416 37.6854 51.736 37.6854 52.12C37.6854 52.488 37.6534 52.808 37.5894 53.08H38.3094C38.2454 52.808 38.2134 52.488 38.2134 52.12C38.2134 51.736 38.2454 51.416 38.3094 51.16H38.7894C38.7254 50.888 38.6934 50.568 38.6934 50.2C38.6934 49.816 38.7254 49.496 38.7894 49.24H39.5094C39.4454 48.968 39.4134 48.648 39.4134 48.28C39.4134 47.896 39.4454 47.576 39.5094 47.32H40.2294C40.1654 47.048 40.1334 46.728 40.1334 46.36C40.1334 45.976 40.1654 45.656 40.2294 45.4H42.1494C42.2134 45.656 42.2454 45.976 42.2454 46.36Z" fill="white"/>
</svg>
