<svg width="56" height="56" viewBox="0 0 56 56" fill="none" xmlns="http://www.w3.org/2000/svg">
<path d="M7.175 24.5C5.14536 24.5 3.47068 22.8447 3.7865 20.8398C4.57568 15.8298 6.97135 11.1584 10.6759 7.52944C15.2705 3.02857 21.5022 0.5 28 0.5C34.4978 0.5 40.7295 3.02856 45.3241 7.52944C49.0286 11.1584 51.4243 15.8298 52.2135 20.8398C52.5293 22.8447 50.8546 24.5 48.825 24.5V24.5C46.7954 24.5 45.1907 22.8347 44.7416 20.8553C44.0395 17.7607 42.4512 14.8975 40.1269 12.6206C36.9106 9.46999 32.5485 7.7 28 7.7C23.4515 7.7 19.0894 9.47 15.8731 12.6206C13.5488 14.8975 11.9605 17.7607 11.2584 20.8553C10.8093 22.8347 9.20465 24.5 7.175 24.5V24.5Z" fill="#3C3C43" fill-opacity="0.18"/>
<path d="M7.175 24.5C5.14536 24.5 3.47075 22.8448 3.78658 20.8399C4.24784 17.9118 5.26035 15.0818 6.78366 12.4978C8.93481 8.84885 12.0288 5.81898 15.7544 3.71288C19.4801 1.60678 23.7062 0.498677 28.0077 0.500001C31.0716 0.500944 34.097 1.06474 36.9301 2.15104C38.8196 2.87554 39.4155 5.15009 38.3872 6.89304V6.89304C37.3846 8.5925 35.2097 9.1341 33.3306 8.53214C31.6185 7.98366 29.8216 7.70056 28.0054 7.7C24.9943 7.69907 22.0361 8.47474 19.4281 9.94901C16.8201 11.4233 14.6544 13.5442 13.1486 16.0985C12.2712 17.5868 11.6359 19.1916 11.2584 20.8554C10.8094 22.8347 9.20465 24.5 7.175 24.5V24.5Z" fill="#FFCC00"/>
<path d="M7.175 24.5C5.14536 24.5 3.47075 22.8448 3.78658 20.8399C4.24771 17.9126 5.25977 15.0834 6.78238 12.5C8.33415 9.86711 10.3767 7.55645 12.7933 5.68246C14.3526 4.4733 16.5528 5.07753 17.5547 6.77742V6.77742C18.5822 8.52077 17.9454 10.7438 16.437 12.0928C15.1425 13.2505 14.0314 14.6006 13.1477 16.1C12.2708 17.5879 11.6358 19.1922 11.2584 20.8554C10.8094 22.8347 9.20465 24.5 7.175 24.5V24.5Z" fill="#34C759"/>
<circle cx="28.2642" cy="24.2642" r="12.6383" transform="rotate(120 28.2642 24.2642)" fill="#F1E1D0"/>
<rect x="34.5321" y="14.174" width="6.12766" height="1.53191" rx="0.765957" transform="rotate(120 34.5321 14.174)" fill="#84B288"/>
<path d="M2.42788 46.86C2.42788 47.228 2.39588 47.548 2.33188 47.82H3.05188C3.11588 48.076 3.14788 48.396 3.14788 48.78C3.14788 49.148 3.11588 49.468 3.05188 49.74C3.11588 49.996 3.14788 50.316 3.14788 50.7C3.14788 51.068 3.11588 51.388 3.05188 51.66C3.11588 51.916 3.14788 52.236 3.14788 52.62C3.14788 52.988 3.11588 53.308 3.05188 53.58C3.11588 53.836 3.14788 54.156 3.14788 54.54C3.14788 54.908 3.11588 55.228 3.05188 55.5H1.13188C1.06788 55.228 1.03588 54.908 1.03588 54.54C1.03588 54.156 1.06788 53.836 1.13188 53.58C1.06788 53.308 1.03588 52.988 1.03588 52.62C1.03588 52.236 1.06788 51.916 1.13188 51.66C1.06788 51.388 1.03588 51.068 1.03588 50.7C1.03588 50.316 1.06788 49.996 1.13188 49.74C1.06788 49.468 1.03588 49.148 1.03588 48.78C1.03588 48.396 1.06788 48.076 1.13188 47.82C1.06788 47.548 1.03588 47.228 1.03588 46.86C1.03588 46.476 1.06788 46.156 1.13188 45.9H2.33188C2.39588 46.156 2.42788 46.476 2.42788 46.86ZM5.06788 46.86C5.06788 47.228 5.03588 47.548 4.97188 47.82H5.69188C5.75588 48.076 5.78788 48.396 5.78788 48.78C5.78788 49.148 5.75588 49.468 5.69188 49.74C5.75588 49.996 5.78788 50.316 5.78788 50.7C5.78788 51.068 5.75588 51.388 5.69188 51.66C5.75588 51.916 5.78788 52.236 5.78788 52.62C5.78788 52.988 5.75588 53.308 5.69188 53.58C5.75588 53.836 5.78788 54.156 5.78788 54.54C5.78788 54.908 5.75588 55.228 5.69188 55.5H4.25188C4.18788 55.228 4.15588 54.908 4.15588 54.54C4.15588 54.156 4.18788 53.836 4.25188 53.58C4.18788 53.308 4.15588 52.988 4.15588 52.62C4.15588 52.236 4.18788 51.916 4.25188 51.66C4.18788 51.388 4.15588 51.068 4.15588 50.7C4.15588 50.316 4.18788 49.996 4.25188 49.74C4.18788 49.468 4.15588 49.148 4.15588 48.78C4.15588 48.396 4.18788 48.076 4.25188 47.82H3.05188C2.98788 47.548 2.95588 47.228 2.95588 46.86C2.95588 46.476 2.98788 46.156 3.05188 45.9H4.97188C5.03588 46.156 5.06788 46.476 5.06788 46.86ZM8.81188 49.74C8.87588 49.996 8.90788 50.316 8.90788 50.7C8.90788 51.068 8.87588 51.388 8.81188 51.66C8.87588 51.916 8.90788 52.236 8.90788 52.62C8.90788 52.988 8.87588 53.308 8.81188 53.58C8.87588 53.836 8.90788 54.156 8.90788 54.54C8.90788 54.908 8.87588 55.228 8.81188 55.5H6.89188C6.82788 55.228 6.79588 54.908 6.79588 54.54C6.79588 54.156 6.82788 53.836 6.89188 53.58C6.82788 53.308 6.79588 52.988 6.79588 52.62C6.79588 52.236 6.82788 51.916 6.89188 51.66C6.82788 51.388 6.79588 51.068 6.79588 50.7C6.79588 50.316 6.82788 49.996 6.89188 49.74C6.82788 49.468 6.79588 49.148 6.79588 48.78C6.79588 48.396 6.82788 48.076 6.89188 47.82H5.69188C5.62788 47.548 5.59588 47.228 5.59588 46.86C5.59588 46.476 5.62788 46.156 5.69188 45.9H7.85188C7.91588 46.156 7.94788 46.476 7.94788 46.86C7.94788 47.228 7.91588 47.548 7.85188 47.82H8.81188C8.87588 48.076 8.90788 48.396 8.90788 48.78C8.90788 49.148 8.87588 49.468 8.81188 49.74ZM18.1173 48.78C18.1173 49.148 18.0853 49.468 18.0213 49.74C18.0853 49.996 18.1173 50.316 18.1173 50.7C18.1173 51.068 18.0853 51.388 18.0213 51.66H12.9813C13.0453 51.916 13.0773 52.236 13.0773 52.62C13.0773 52.988 13.0453 53.308 12.9813 53.58H17.0613C17.1253 53.836 17.1573 54.156 17.1573 54.54C17.1573 54.908 17.1253 55.228 17.0613 55.5H12.2613C12.1973 55.228 12.1653 54.908 12.1653 54.54C12.1653 54.156 12.1973 53.836 12.2613 53.58H11.0613C10.9973 53.308 10.9653 52.988 10.9653 52.62C10.9653 52.236 10.9973 51.916 11.0613 51.66H10.3413C10.2773 51.388 10.2453 51.068 10.2453 50.7C10.2453 50.316 10.2773 49.996 10.3413 49.74H11.0613C10.9973 49.468 10.9653 49.148 10.9653 48.78C10.9653 48.396 10.9973 48.076 11.0613 47.82H12.2613C12.1973 47.548 12.1653 47.228 12.1653 46.86C12.1653 46.476 12.1973 46.156 12.2613 45.9H17.0613C17.1253 46.156 17.1573 46.476 17.1573 46.86C17.1573 47.228 17.1253 47.548 17.0613 47.82H18.0213C18.0853 48.076 18.1173 48.396 18.1173 48.78ZM16.1013 49.74C16.0373 49.468 16.0053 49.148 16.0053 48.78C16.0053 48.396 16.0373 48.076 16.1013 47.82H12.9813C13.0453 48.076 13.0773 48.396 13.0773 48.78C13.0773 49.148 13.0453 49.468 12.9813 49.74H16.1013ZM27.2306 43.98C27.2946 44.236 27.3266 44.556 27.3266 44.94C27.3266 45.308 27.2946 45.628 27.2306 45.9C27.2946 46.156 27.3266 46.476 27.3266 46.86C27.3266 47.228 27.2946 47.548 27.2306 47.82C27.2946 48.076 27.3266 48.396 27.3266 48.78C27.3266 49.148 27.2946 49.468 27.2306 49.74C27.2946 49.996 27.3266 50.316 27.3266 50.7C27.3266 51.068 27.2946 51.388 27.2306 51.66C27.2946 51.916 27.3266 52.236 27.3266 52.62C27.3266 52.988 27.2946 53.308 27.2306 53.58C27.2946 53.836 27.3266 54.156 27.3266 54.54C27.3266 54.908 27.2946 55.228 27.2306 55.5H25.3106C25.2466 55.228 25.2146 54.908 25.2146 54.54C25.2146 54.156 25.2466 53.836 25.3106 53.58H24.5906C24.5266 53.308 24.4946 52.988 24.4946 52.62C24.4946 52.236 24.5266 51.916 24.5906 51.66H25.3106C25.2466 51.388 25.2146 51.068 25.2146 50.7C25.2146 50.316 25.2466 49.996 25.3106 49.74H24.5906C24.5266 49.468 24.4946 49.148 24.4946 48.78C24.4946 48.396 24.5266 48.076 24.5906 47.82H25.3106C25.2466 47.548 25.2146 47.228 25.2146 46.86C25.2146 46.476 25.2466 46.156 25.3106 45.9C25.2466 45.628 25.2146 45.308 25.2146 44.94C25.2146 44.556 25.2466 44.236 25.3106 43.98C25.2466 43.708 25.2146 43.388 25.2146 43.02C25.2146 42.636 25.2466 42.316 25.3106 42.06H27.2306C27.2946 42.316 27.3266 42.636 27.3266 43.02C27.3266 43.388 27.2946 43.708 27.2306 43.98ZM24.2066 46.86C24.2066 47.228 24.1746 47.548 24.1106 47.82H21.7106C21.7746 48.076 21.8066 48.396 21.8066 48.78C21.8066 49.148 21.7746 49.468 21.7106 49.74H20.9906C21.0546 49.996 21.0866 50.316 21.0866 50.7C21.0866 51.068 21.0546 51.388 20.9906 51.66H21.7106C21.7746 51.916 21.8066 52.236 21.8066 52.62C21.8066 52.988 21.7746 53.308 21.7106 53.58H24.1106C24.1746 53.836 24.2066 54.156 24.2066 54.54C24.2066 54.908 24.1746 55.228 24.1106 55.5H21.4706C21.4066 55.228 21.3746 54.908 21.3746 54.54C21.3746 54.156 21.4066 53.836 21.4706 53.58H20.2706C20.2066 53.308 20.1746 52.988 20.1746 52.62C20.1746 52.236 20.2066 51.916 20.2706 51.66H19.5506C19.4866 51.388 19.4546 51.068 19.4546 50.7C19.4546 50.316 19.4866 49.996 19.5506 49.74H20.2706C20.2066 49.468 20.1746 49.148 20.1746 48.78C20.1746 48.396 20.2066 48.076 20.2706 47.82H21.4706C21.4066 47.548 21.3746 47.228 21.3746 46.86C21.3746 46.476 21.4066 46.156 21.4706 45.9H24.1106C24.1746 46.156 24.2066 46.476 24.2066 46.86ZM31.64 43.98C31.576 43.708 31.544 43.388 31.544 43.02C31.544 42.636 31.576 42.316 31.64 42.06H33.56C33.624 42.316 33.656 42.636 33.656 43.02C33.656 43.388 33.624 43.708 33.56 43.98H31.64ZM35.48 53.58C35.544 53.836 35.576 54.156 35.576 54.54C35.576 54.908 35.544 55.228 35.48 55.5H29.72C29.656 55.228 29.624 54.908 29.624 54.54C29.624 54.156 29.656 53.836 29.72 53.58H31.64C31.576 53.308 31.544 52.988 31.544 52.62C31.544 52.236 31.576 51.916 31.64 51.66C31.576 51.388 31.544 51.068 31.544 50.7C31.544 50.316 31.576 49.996 31.64 49.74C31.576 49.468 31.544 49.148 31.544 48.78C31.544 48.396 31.576 48.076 31.64 47.82H30.2C30.136 47.548 30.104 47.228 30.104 46.86C30.104 46.476 30.136 46.156 30.2 45.9H33.56C33.624 46.156 33.656 46.476 33.656 46.86C33.656 47.228 33.624 47.548 33.56 47.82C33.624 48.076 33.656 48.396 33.656 48.78C33.656 49.148 33.624 49.468 33.56 49.74C33.624 49.996 33.656 50.316 33.656 50.7C33.656 51.068 33.624 51.388 33.56 51.66C33.624 51.916 33.656 52.236 33.656 52.62C33.656 52.988 33.624 53.308 33.56 53.58H35.48ZM40.7054 52.62C40.7054 52.988 40.6734 53.308 40.6094 53.58H43.0094C43.0734 53.836 43.1054 54.156 43.1054 54.54C43.1054 54.908 43.0734 55.228 43.0094 55.5H39.1694C39.1054 55.228 39.0734 54.908 39.0734 54.54C39.0734 54.156 39.1054 53.836 39.1694 53.58H37.9694C37.9054 53.308 37.8734 52.988 37.8734 52.62C37.8734 52.236 37.9054 51.916 37.9694 51.66C37.9054 51.388 37.8734 51.068 37.8734 50.7C37.8734 50.316 37.9054 49.996 37.9694 49.74C37.9054 49.468 37.8734 49.148 37.8734 48.78C37.8734 48.396 37.9054 48.076 37.9694 47.82C37.9054 47.548 37.8734 47.228 37.8734 46.86C37.8734 46.476 37.9054 46.156 37.9694 45.9H39.8894C39.9534 46.156 39.9854 46.476 39.9854 46.86C39.9854 47.228 39.9534 47.548 39.8894 47.82C39.9534 48.076 39.9854 48.396 39.9854 48.78C39.9854 49.148 39.9534 49.468 39.8894 49.74C39.9534 49.996 39.9854 50.316 39.9854 50.7C39.9854 51.068 39.9534 51.388 39.8894 51.66H40.6094C40.6734 51.916 40.7054 52.236 40.7054 52.62ZM45.6494 47.82C45.7134 48.076 45.7454 48.396 45.7454 48.78C45.7454 49.148 45.7134 49.468 45.6494 49.74C45.7134 49.996 45.7454 50.316 45.7454 50.7C45.7454 51.068 45.7134 51.388 45.6494 51.66C45.7134 51.916 45.7454 52.236 45.7454 52.62C45.7454 52.988 45.7134 53.308 45.6494 53.58C45.7134 53.836 45.7454 54.156 45.7454 54.54C45.7454 54.908 45.7134 55.228 45.6494 55.5H43.7294C43.6654 55.228 43.6334 54.908 43.6334 54.54C43.6334 54.156 43.6654 53.836 43.7294 53.58H43.0094C42.9454 53.308 42.9134 52.988 42.9134 52.62C42.9134 52.236 42.9454 51.916 43.0094 51.66H43.7294C43.6654 51.388 43.6334 51.068 43.6334 50.7C43.6334 50.316 43.6654 49.996 43.7294 49.74C43.6654 49.468 43.6334 49.148 43.6334 48.78C43.6334 48.396 43.6654 48.076 43.7294 47.82C43.6654 47.548 43.6334 47.228 43.6334 46.86C43.6334 46.476 43.6654 46.156 43.7294 45.9H45.6494C45.7134 46.156 45.7454 46.476 45.7454 46.86C45.7454 47.228 45.7134 47.548 45.6494 47.82ZM48.4748 46.86C48.4748 47.228 48.4428 47.548 48.3788 47.82H49.0988C49.1628 48.076 49.1948 48.396 49.1948 48.78C49.1948 49.148 49.1628 49.468 49.0988 49.74C49.1628 49.996 49.1948 50.316 49.1948 50.7C49.1948 51.068 49.1628 51.388 49.0988 51.66C49.1628 51.916 49.1948 52.236 49.1948 52.62C49.1948 52.988 49.1628 53.308 49.0988 53.58C49.1628 53.836 49.1948 54.156 49.1948 54.54C49.1948 54.908 49.1628 55.228 49.0988 55.5H47.1788C47.1148 55.228 47.0828 54.908 47.0828 54.54C47.0828 54.156 47.1148 53.836 47.1788 53.58C47.1148 53.308 47.0828 52.988 47.0828 52.62C47.0828 52.236 47.1148 51.916 47.1788 51.66C47.1148 51.388 47.0828 51.068 47.0828 50.7C47.0828 50.316 47.1148 49.996 47.1788 49.74C47.1148 49.468 47.0828 49.148 47.0828 48.78C47.0828 48.396 47.1148 48.076 47.1788 47.82C47.1148 47.548 47.0828 47.228 47.0828 46.86C47.0828 46.476 47.1148 46.156 47.1788 45.9H48.3788C48.4428 46.156 48.4748 46.476 48.4748 46.86ZM51.1148 46.86C51.1148 47.228 51.0828 47.548 51.0188 47.82H51.7388C51.8028 48.076 51.8348 48.396 51.8348 48.78C51.8348 49.148 51.8028 49.468 51.7388 49.74C51.8028 49.996 51.8348 50.316 51.8348 50.7C51.8348 51.068 51.8028 51.388 51.7388 51.66C51.8028 51.916 51.8348 52.236 51.8348 52.62C51.8348 52.988 51.8028 53.308 51.7388 53.58C51.8028 53.836 51.8348 54.156 51.8348 54.54C51.8348 54.908 51.8028 55.228 51.7388 55.5H50.2988C50.2348 55.228 50.2028 54.908 50.2028 54.54C50.2028 54.156 50.2348 53.836 50.2988 53.58C50.2348 53.308 50.2028 52.988 50.2028 52.62C50.2028 52.236 50.2348 51.916 50.2988 51.66C50.2348 51.388 50.2028 51.068 50.2028 50.7C50.2028 50.316 50.2348 49.996 50.2988 49.74C50.2348 49.468 50.2028 49.148 50.2028 48.78C50.2028 48.396 50.2348 48.076 50.2988 47.82H49.0988C49.0348 47.548 49.0028 47.228 49.0028 46.86C49.0028 46.476 49.0348 46.156 49.0988 45.9H51.0188C51.0828 46.156 51.1148 46.476 51.1148 46.86ZM54.8588 49.74C54.9228 49.996 54.9548 50.316 54.9548 50.7C54.9548 51.068 54.9228 51.388 54.8588 51.66C54.9228 51.916 54.9548 52.236 54.9548 52.62C54.9548 52.988 54.9228 53.308 54.8588 53.58C54.9228 53.836 54.9548 54.156 54.9548 54.54C54.9548 54.908 54.9228 55.228 54.8588 55.5H52.9388C52.8748 55.228 52.8428 54.908 52.8428 54.54C52.8428 54.156 52.8748 53.836 52.9388 53.58C52.8748 53.308 52.8428 52.988 52.8428 52.62C52.8428 52.236 52.8748 51.916 52.9388 51.66C52.8748 51.388 52.8428 51.068 52.8428 50.7C52.8428 50.316 52.8748 49.996 52.9388 49.74C52.8748 49.468 52.8428 49.148 52.8428 48.78C52.8428 48.396 52.8748 48.076 52.9388 47.82H51.7388C51.6748 47.548 51.6428 47.228 51.6428 46.86C51.6428 46.476 51.6748 46.156 51.7388 45.9H53.8988C53.9628 46.156 53.9948 46.476 53.9948 46.86C53.9948 47.228 53.9628 47.548 53.8988 47.82H54.8588C54.9228 48.076 54.9548 48.396 54.9548 48.78C54.9548 49.148 54.9228 49.468 54.8588 49.74Z" fill="white"/>
</svg>
