<svg width="700" height="144" viewBox="0 0 700 144" fill="none" xmlns="http://www.w3.org/2000/svg">
<path d="M84.434 10.88C84.434 14.8053 84.0927 18.2187 83.41 21.12C84.0927 23.8507 84.434 27.264 84.434 31.36C84.434 35.2853 84.0927 38.6987 83.41 41.6H73.17C73.8527 44.3307 74.194 47.744 74.194 51.84C74.194 55.7653 73.8527 59.1787 73.17 62.08H62.93C63.6127 64.8107 63.954 68.224 63.954 72.32C63.954 76.2453 63.6127 79.6587 62.93 82.56H52.69C53.3727 85.2907 53.714 88.704 53.714 92.8C53.714 96.7253 53.3727 100.139 52.69 103.04C53.3727 105.771 53.714 109.184 53.714 113.28C53.714 117.205 53.3727 120.619 52.69 123.52C53.3727 126.251 53.714 129.664 53.714 133.76C53.714 137.685 53.3727 141.099 52.69 144H32.21C31.5273 141.099 31.186 137.685 31.186 133.76C31.186 129.664 31.5273 126.251 32.21 123.52C31.5273 120.619 31.186 117.205 31.186 113.28C31.186 109.184 31.5273 105.771 32.21 103.04C31.5273 100.139 31.186 96.7253 31.186 92.8C31.186 88.704 31.5273 85.2907 32.21 82.56H21.97C21.2873 79.6587 20.946 76.2453 20.946 72.32C20.946 68.224 21.2873 64.8107 21.97 62.08H11.73C11.0473 59.1787 10.706 55.7653 10.706 51.84C10.706 47.744 11.0473 44.3307 11.73 41.6H1.49C0.807334 38.6987 0.466001 35.2853 0.466001 31.36C0.466001 27.264 0.807334 23.8507 1.49 21.12C0.807334 18.2187 0.466001 14.8053 0.466001 10.88C0.466001 6.78399 0.807334 3.37066 1.49 0.639999H21.97C22.6527 3.37066 22.994 6.78399 22.994 10.88C22.994 14.8053 22.6527 18.2187 21.97 21.12C22.6527 23.8507 22.994 27.264 22.994 31.36C22.994 35.2853 22.6527 38.6987 21.97 41.6H32.21C32.8927 44.3307 33.234 47.744 33.234 51.84C33.234 55.7653 32.8927 59.1787 32.21 62.08H52.69C52.0073 59.1787 51.666 55.7653 51.666 51.84C51.666 47.744 52.0073 44.3307 52.69 41.6H62.93C62.2473 38.6987 61.906 35.2853 61.906 31.36C61.906 27.264 62.2473 23.8507 62.93 21.12C62.2473 18.2187 61.906 14.8053 61.906 10.88C61.906 6.78399 62.2473 3.37066 62.93 0.639999H83.41C84.0927 3.37066 84.434 6.78399 84.434 10.88ZM185.91 62.08C186.593 64.8107 186.934 68.224 186.934 72.32C186.934 76.2453 186.593 79.6587 185.91 82.56C186.593 85.2907 186.934 88.704 186.934 92.8C186.934 96.7253 186.593 100.139 185.91 103.04H178.23C178.913 105.771 179.254 109.184 179.254 113.28C179.254 117.205 178.913 120.619 178.23 123.52H165.43C166.113 126.251 166.454 129.664 166.454 133.76C166.454 137.685 166.113 141.099 165.43 144H124.47C123.787 141.099 123.446 137.685 123.446 133.76C123.446 129.664 123.787 126.251 124.47 123.52H111.67C110.987 120.619 110.646 117.205 110.646 113.28C110.646 109.184 110.987 105.771 111.67 103.04H103.99C103.307 100.139 102.966 96.7253 102.966 92.8C102.966 88.704 103.307 85.2907 103.99 82.56C103.307 79.6587 102.966 76.2453 102.966 72.32C102.966 68.224 103.307 64.8107 103.99 62.08C103.307 59.1787 102.966 55.7653 102.966 51.84C102.966 47.744 103.307 44.3307 103.99 41.6H111.67C110.987 38.6987 110.646 35.2853 110.646 31.36C110.646 27.264 110.987 23.8507 111.67 21.12H124.47C123.787 18.2187 123.446 14.8053 123.446 10.88C123.446 6.78399 123.787 3.37066 124.47 0.639999H165.43C166.113 3.37066 166.454 6.78399 166.454 10.88C166.454 14.8053 166.113 18.2187 165.43 21.12H178.23C178.913 23.8507 179.254 27.264 179.254 31.36C179.254 35.2853 178.913 38.6987 178.23 41.6H185.91C186.593 44.3307 186.934 47.744 186.934 51.84C186.934 55.7653 186.593 59.1787 185.91 62.08ZM165.43 103.04C164.747 100.139 164.406 96.7253 164.406 92.8C164.406 88.704 164.747 85.2907 165.43 82.56C164.747 79.6587 164.406 76.2453 164.406 72.32C164.406 68.224 164.747 64.8107 165.43 62.08C164.747 59.1787 164.406 55.7653 164.406 51.84C164.406 47.744 164.747 44.3307 165.43 41.6H157.75C157.067 38.6987 156.726 35.2853 156.726 31.36C156.726 27.264 157.067 23.8507 157.75 21.12H132.15C132.833 23.8507 133.174 27.264 133.174 31.36C133.174 35.2853 132.833 38.6987 132.15 41.6H124.47C125.153 44.3307 125.494 47.744 125.494 51.84C125.494 55.7653 125.153 59.1787 124.47 62.08C125.153 64.8107 125.494 68.224 125.494 72.32C125.494 76.2453 125.153 79.6587 124.47 82.56C125.153 85.2907 125.494 88.704 125.494 92.8C125.494 96.7253 125.153 100.139 124.47 103.04H132.15C132.833 105.771 133.174 109.184 133.174 113.28C133.174 117.205 132.833 120.619 132.15 123.52H157.75C157.067 120.619 156.726 117.205 156.726 113.28C156.726 109.184 157.067 105.771 157.75 103.04H165.43ZM288.41 21.12C289.093 23.8507 289.434 27.264 289.434 31.36C289.434 35.2853 289.093 38.6987 288.41 41.6C289.093 44.3307 289.434 47.744 289.434 51.84C289.434 55.7653 289.093 59.1787 288.41 62.08C289.093 64.8107 289.434 68.224 289.434 72.32C289.434 76.2453 289.093 79.6587 288.41 82.56C289.093 85.2907 289.434 88.704 289.434 92.8C289.434 96.7253 289.093 100.139 288.41 103.04C289.093 105.771 289.434 109.184 289.434 113.28C289.434 117.205 289.093 120.619 288.41 123.52H278.17C278.853 126.251 279.194 129.664 279.194 133.76C279.194 137.685 278.853 141.099 278.17 144H216.73C216.047 141.099 215.706 137.685 215.706 133.76C215.706 129.664 216.047 126.251 216.73 123.52H206.49C205.807 120.619 205.466 117.205 205.466 113.28C205.466 109.184 205.807 105.771 206.49 103.04C205.807 100.139 205.466 96.7253 205.466 92.8C205.466 88.704 205.807 85.2907 206.49 82.56C205.807 79.6587 205.466 76.2453 205.466 72.32C205.466 68.224 205.807 64.8107 206.49 62.08C205.807 59.1787 205.466 55.7653 205.466 51.84C205.466 47.744 205.807 44.3307 206.49 41.6C205.807 38.6987 205.466 35.2853 205.466 31.36C205.466 27.264 205.807 23.8507 206.49 21.12C205.807 18.2187 205.466 14.8053 205.466 10.88C205.466 6.78399 205.807 3.37066 206.49 0.639999H226.97C227.653 3.37066 227.994 6.78399 227.994 10.88C227.994 14.8053 227.653 18.2187 226.97 21.12C227.653 23.8507 227.994 27.264 227.994 31.36C227.994 35.2853 227.653 38.6987 226.97 41.6C227.653 44.3307 227.994 47.744 227.994 51.84C227.994 55.7653 227.653 59.1787 226.97 62.08C227.653 64.8107 227.994 68.224 227.994 72.32C227.994 76.2453 227.653 79.6587 226.97 82.56C227.653 85.2907 227.994 88.704 227.994 92.8C227.994 96.7253 227.653 100.139 226.97 103.04C227.653 105.771 227.994 109.184 227.994 113.28C227.994 117.205 227.653 120.619 226.97 123.52H267.93C267.247 120.619 266.906 117.205 266.906 113.28C266.906 109.184 267.247 105.771 267.93 103.04C267.247 100.139 266.906 96.7253 266.906 92.8C266.906 88.704 267.247 85.2907 267.93 82.56C267.247 79.6587 266.906 76.2453 266.906 72.32C266.906 68.224 267.247 64.8107 267.93 62.08C267.247 59.1787 266.906 55.7653 266.906 51.84C266.906 47.744 267.247 44.3307 267.93 41.6C267.247 38.6987 266.906 35.2853 266.906 31.36C266.906 27.264 267.247 23.8507 267.93 21.12C267.247 18.2187 266.906 14.8053 266.906 10.88C266.906 6.78399 267.247 3.37066 267.93 0.639999H288.41C289.093 3.37066 289.434 6.78399 289.434 10.88C289.434 14.8053 289.093 18.2187 288.41 21.12ZM493.41 21.12C494.093 23.8507 494.434 27.264 494.434 31.36C494.434 35.2853 494.093 38.6987 493.41 41.6C494.093 44.3307 494.434 47.744 494.434 51.84C494.434 55.7653 494.093 59.1787 493.41 62.08C494.093 64.8107 494.434 68.224 494.434 72.32C494.434 76.2453 494.093 79.6587 493.41 82.56H485.73C486.413 85.2907 486.754 88.704 486.754 92.8C486.754 96.7253 486.413 100.139 485.73 103.04C486.413 105.771 486.754 109.184 486.754 113.28C486.754 117.205 486.413 120.619 485.73 123.52H480.61C481.293 126.251 481.634 129.664 481.634 133.76C481.634 137.685 481.293 141.099 480.61 144H465.25C464.567 141.099 464.226 137.685 464.226 133.76C464.226 129.664 464.567 126.251 465.25 123.52H460.13C459.447 120.619 459.106 117.205 459.106 113.28C459.106 109.184 459.447 105.771 460.13 103.04H444.77C445.453 105.771 445.794 109.184 445.794 113.28C445.794 117.205 445.453 120.619 444.77 123.52H439.65C440.333 126.251 440.674 129.664 440.674 133.76C440.674 137.685 440.333 141.099 439.65 144H424.29C423.607 141.099 423.266 137.685 423.266 133.76C423.266 129.664 423.607 126.251 424.29 123.52H419.17C418.487 120.619 418.146 117.205 418.146 113.28C418.146 109.184 418.487 105.771 419.17 103.04C418.487 100.139 418.146 96.7253 418.146 92.8C418.146 88.704 418.487 85.2907 419.17 82.56H411.49C410.807 79.6587 410.466 76.2453 410.466 72.32C410.466 68.224 410.807 64.8107 411.49 62.08C410.807 59.1787 410.466 55.7653 410.466 51.84C410.466 47.744 410.807 44.3307 411.49 41.6C410.807 38.6987 410.466 35.2853 410.466 31.36C410.466 27.264 410.807 23.8507 411.49 21.12C410.807 18.2187 410.466 14.8053 410.466 10.88C410.466 6.78399 410.807 3.37066 411.49 0.639999H431.97C432.653 3.37066 432.994 6.78399 432.994 10.88C432.994 14.8053 432.653 18.2187 431.97 21.12C432.653 23.8507 432.994 27.264 432.994 31.36C432.994 35.2853 432.653 38.6987 431.97 41.6C432.653 44.3307 432.994 47.744 432.994 51.84C432.994 55.7653 432.653 59.1787 431.97 62.08C432.653 64.8107 432.994 68.224 432.994 72.32C432.994 76.2453 432.653 79.6587 431.97 82.56C432.653 85.2907 432.994 88.704 432.994 92.8C432.994 96.7253 432.653 100.139 431.97 103.04H439.65C438.967 100.139 438.626 96.7253 438.626 92.8C438.626 88.704 438.967 85.2907 439.65 82.56H444.77C444.087 79.6587 443.746 76.2453 443.746 72.32C443.746 68.224 444.087 64.8107 444.77 62.08C444.087 59.1787 443.746 55.7653 443.746 51.84C443.746 47.744 444.087 44.3307 444.77 41.6C444.087 38.6987 443.746 35.2853 443.746 31.36C443.746 27.264 444.087 23.8507 444.77 21.12C444.087 18.2187 443.746 14.8053 443.746 10.88C443.746 6.78399 444.087 3.37066 444.77 0.639999H460.13C460.813 3.37066 461.154 6.78399 461.154 10.88C461.154 14.8053 460.813 18.2187 460.13 21.12C460.813 23.8507 461.154 27.264 461.154 31.36C461.154 35.2853 460.813 38.6987 460.13 41.6C460.813 44.3307 461.154 47.744 461.154 51.84C461.154 55.7653 460.813 59.1787 460.13 62.08C460.813 64.8107 461.154 68.224 461.154 72.32C461.154 76.2453 460.813 79.6587 460.13 82.56H465.25C465.933 85.2907 466.274 88.704 466.274 92.8C466.274 96.7253 465.933 100.139 465.25 103.04H472.93C472.247 100.139 471.906 96.7253 471.906 92.8C471.906 88.704 472.247 85.2907 472.93 82.56C472.247 79.6587 471.906 76.2453 471.906 72.32C471.906 68.224 472.247 64.8107 472.93 62.08C472.247 59.1787 471.906 55.7653 471.906 51.84C471.906 47.744 472.247 44.3307 472.93 41.6C472.247 38.6987 471.906 35.2853 471.906 31.36C471.906 27.264 472.247 23.8507 472.93 21.12C472.247 18.2187 471.906 14.8053 471.906 10.88C471.906 6.78399 472.247 3.37066 472.93 0.639999H493.41C494.093 3.37066 494.434 6.78399 494.434 10.88C494.434 14.8053 494.093 18.2187 493.41 21.12ZM580.55 123.52C581.233 126.251 581.574 129.664 581.574 133.76C581.574 137.685 581.233 141.099 580.55 144H529.35C528.667 141.099 528.326 137.685 528.326 133.76C528.326 129.664 528.667 126.251 529.35 123.52H544.71C544.027 120.619 543.686 117.205 543.686 113.28C543.686 109.184 544.027 105.771 544.71 103.04C544.027 100.139 543.686 96.7253 543.686 92.8C543.686 88.704 544.027 85.2907 544.71 82.56C544.027 79.6587 543.686 76.2453 543.686 72.32C543.686 68.224 544.027 64.8107 544.71 62.08C544.027 59.1787 543.686 55.7653 543.686 51.84C543.686 47.744 544.027 44.3307 544.71 41.6C544.027 38.6987 543.686 35.2853 543.686 31.36C543.686 27.264 544.027 23.8507 544.71 21.12H529.35C528.667 18.2187 528.326 14.8053 528.326 10.88C528.326 6.78399 528.667 3.37066 529.35 0.639999H580.55C581.233 3.37066 581.574 6.78399 581.574 10.88C581.574 14.8053 581.233 18.2187 580.55 21.12H565.19C565.873 23.8507 566.214 27.264 566.214 31.36C566.214 35.2853 565.873 38.6987 565.19 41.6C565.873 44.3307 566.214 47.744 566.214 51.84C566.214 55.7653 565.873 59.1787 565.19 62.08C565.873 64.8107 566.214 68.224 566.214 72.32C566.214 76.2453 565.873 79.6587 565.19 82.56C565.873 85.2907 566.214 88.704 566.214 92.8C566.214 96.7253 565.873 100.139 565.19 103.04C565.873 105.771 566.214 109.184 566.214 113.28C566.214 117.205 565.873 120.619 565.19 123.52H580.55ZM698.41 21.12C699.093 23.8507 699.434 27.264 699.434 31.36C699.434 35.2853 699.093 38.6987 698.41 41.6C699.093 44.3307 699.434 47.744 699.434 51.84C699.434 55.7653 699.093 59.1787 698.41 62.08C699.093 64.8107 699.434 68.224 699.434 72.32C699.434 76.2453 699.093 79.6587 698.41 82.56C699.093 85.2907 699.434 88.704 699.434 92.8C699.434 96.7253 699.093 100.139 698.41 103.04C699.093 105.771 699.434 109.184 699.434 113.28C699.434 117.205 699.093 120.619 698.41 123.52C699.093 126.251 699.434 129.664 699.434 133.76C699.434 137.685 699.093 141.099 698.41 144H677.93C677.247 141.099 676.906 137.685 676.906 133.76C676.906 129.664 677.247 126.251 677.93 123.52H665.13C664.447 120.619 664.106 117.205 664.106 113.28C664.106 109.184 664.447 105.771 665.13 103.04H657.45C656.767 100.139 656.426 96.7253 656.426 92.8C656.426 88.704 656.767 85.2907 657.45 82.56H647.21C646.527 79.6587 646.186 76.2453 646.186 72.32C646.186 68.224 646.527 64.8107 647.21 62.08H636.97C637.653 64.8107 637.994 68.224 637.994 72.32C637.994 76.2453 637.653 79.6587 636.97 82.56C637.653 85.2907 637.994 88.704 637.994 92.8C637.994 96.7253 637.653 100.139 636.97 103.04C637.653 105.771 637.994 109.184 637.994 113.28C637.994 117.205 637.653 120.619 636.97 123.52C637.653 126.251 637.994 129.664 637.994 133.76C637.994 137.685 637.653 141.099 636.97 144H616.49C615.807 141.099 615.466 137.685 615.466 133.76C615.466 129.664 615.807 126.251 616.49 123.52C615.807 120.619 615.466 117.205 615.466 113.28C615.466 109.184 615.807 105.771 616.49 103.04C615.807 100.139 615.466 96.7253 615.466 92.8C615.466 88.704 615.807 85.2907 616.49 82.56C615.807 79.6587 615.466 76.2453 615.466 72.32C615.466 68.224 615.807 64.8107 616.49 62.08C615.807 59.1787 615.466 55.7653 615.466 51.84C615.466 47.744 615.807 44.3307 616.49 41.6C615.807 38.6987 615.466 35.2853 615.466 31.36C615.466 27.264 615.807 23.8507 616.49 21.12C615.807 18.2187 615.466 14.8053 615.466 10.88C615.466 6.78399 615.807 3.37066 616.49 0.639999H642.09C642.773 3.37066 643.114 6.78399 643.114 10.88C643.114 14.8053 642.773 18.2187 642.09 21.12H649.77C650.453 23.8507 650.794 27.264 650.794 31.36C650.794 35.2853 650.453 38.6987 649.77 41.6H657.45C658.133 44.3307 658.474 47.744 658.474 51.84C658.474 55.7653 658.133 59.1787 657.45 62.08H667.69C668.373 64.8107 668.714 68.224 668.714 72.32C668.714 76.2453 668.373 79.6587 667.69 82.56H677.93C677.247 79.6587 676.906 76.2453 676.906 72.32C676.906 68.224 677.247 64.8107 677.93 62.08C677.247 59.1787 676.906 55.7653 676.906 51.84C676.906 47.744 677.247 44.3307 677.93 41.6C677.247 38.6987 676.906 35.2853 676.906 31.36C676.906 27.264 677.247 23.8507 677.93 21.12C677.247 18.2187 676.906 14.8053 676.906 10.88C676.906 6.78399 677.247 3.37066 677.93 0.639999H698.41C699.093 3.37066 699.434 6.78399 699.434 10.88C699.434 14.8053 699.093 18.2187 698.41 21.12Z" fill="black"/>
</svg>
